# AST/ASF file generated using VICON BodyLanguage
# -----------------------------------------------
:version 1.10
:name VICON
:units
  mass 1.0
  length 0.45
  angle deg
:documentation
   .ast/.asf automatically generated from VICON data using
   VICON BodyBuilder and BodyLanguage model FoxedUp or BRILLIANT.MOD
:root
   order TX TY TZ RX RY RZ
   axis XYZ
   position 0 0 0  
   orientation 0 0 0 
:bonedata
  begin
     id 1 
     name lhipjoint
     direction 0.646657 -0.683706 0.338203 
     length 2.4948 
     axis 0 0 0  XYZ
  end
  begin
     id 2 
     name lfemur
     direction 0.34202 -0.939693 0  
     length 6.79491  
     axis 0 0 20  XYZ
    dof rx ry rz
    limits (-160.0 20.0)
           (-70.0 70.0)
           (-60.0 70.0)
  end
  begin
     id 3 
     name ltibia
     direction 0.34202 -0.939693 0   
     length 7.56807   
     axis 0 0 20   XYZ
    dof rx
    limits (-10.0 170.0)
  end
  begin
     id 4 
     name lfoot
     direction 0.0679796 -0.186772 0.980048   
     length 2.53018   
     axis -90 7.62852e-016 20   XYZ
    dof rx rz
    limits (-45.0 90.0)
           (-70.0 20.0)
  end
  begin
     id 5 
     name ltoes
     direction 1.53625e-011 -4.21881e-011 1   
     length 1.26912   
     axis -90 7.62852e-016 20   XYZ
    dof rx
    limits (-90.0 20.0)
  end
  begin
     id 6 
     name rhipjoint
     direction -0.618868 -0.704065 0.348274   
     length 2.42265  
     axis 0 0 0  XYZ 
  end
  begin
     id 7 
     name rfemur
     direction -0.34202 -0.939693 0   
     length 6.73814   
     axis 0 0 -20   XYZ
    dof rx ry rz
    limits (-160.0 20.0)
           (-70.0 70.0)
           (-70.0 60.0)
  end
  begin
     id 8 
     name rtibia
     direction -0.34202 -0.939693 0   
     length 7.66799   
     axis 0 0 -20   XYZ
    dof rx
    limits (-10.0 170.0)
 end
 begin
     id 9 
     name rfoot
     direction -0.0727352 -0.199838 0.977125   
     length 2.57224  
     axis -90 -7.62852e-016 -20   XYZ
    dof rx rz
    limits (-45.0 90.0)
           (-20.0 70.0)
  end
  begin
     id 10 
     name rtoes
     direction -1.53501e-011 -4.21858e-011 1   
     length 1.28858   
     axis -90 -7.62852e-016 -20   XYZ
    dof rx
    limits (-90.0 20.0)
  end
  begin
     id 11 
     name lowerback
     direction -0.0172471 0.995767 -0.0902851   
     length 2.20206   
     axis 0 0 0   XYZ
    dof rx ry rz
    limits (-20.0 45.0)
           (-30.0 30.0)
           (-30.0 30.0)
  end
  begin
     id 12 
     name upperback
     direction -0.000110737 0.999714 0.0239043   
     length 2.19523   
     axis 0 0 0   XYZ
    dof rx ry rz
    limits (-20.0 45.0)
           (-30.0 30.0)
           (-30.0 30.0)
  end
  begin
     id 13 
     name thorax
     direction 0.00704869 0.997783 0.0661741   
     length 2.21977   
     axis 0 0 0   XYZ
    dof rx ry rz
    limits (-20.0 45.0)
           (-30.0 30.0)
           (-30.0 30.0)
  end
  begin
     id 14 
     name lowerneck
     direction -0.00407501 0.995527 0.0943846   
     length 1.83142   
     axis 0 0 0   XYZ
    dof rx ry rz
    limits (-20.0 45.0)
           (-30.0 30.0)
           (-30.0 30.0)
  end
  begin
     id 15 
     name upperneck
     direction 0.0640586 0.986486 -0.150807   
     length 1.84616   
     axis 0 0 0   XYZ
    dof rx ry rz
    limits (-20.0 45.0)
           (-30.0 30.0)
           (-30.0 30.0)
  end
  begin
     id 16
     name head
     direction 0.0188017 0.99791 -0.0618239  
     length 1.85932  
     axis 0 0 0   XYZ
    dof rx ry rz
    limits (-20.0 45.0)
           (-30.0 30.0)
           (-30.0 30.0)
  end
  begin
     id 17 
     name lclavicle
     direction 0.976074 0.206905 0.066852  
     length 3.81043  
     axis 0 0 0   XYZ
    dof ry rz
    limits (-20.0 10.0)
           (0.0 20.0)
  end
  begin
     id 18 
     name lhumerus
     direction 1 -4.48971e-011 1.86916e-027   
     length 5.37587   
     axis 180 -30 -90   XYZ
    dof rx ry rz
    limits (-60.0 90.0)
           (-90.0 90.0)
           (-90.0 90.0)
  end
  begin
     id 19
     name lradius
     direction 1 -4.48968e-011 1.69187e-027   
     length 3.35977   
     axis 180 -30 -90   XYZ
    dof rx
    limits (-10.0 170.0)
  end
  begin
     id 20
     name lwrist
     direction 1 -4.48968e-011 5.8978e-027   
     length 1.67988   
     axis -3.27506e-015 90 90   XYZ
    dof ry
    limits (-180.0 0.0)
 end
  begin
     id 21 
     name lhand
     direction 1 -4.49028e-011 1.18071e-026   
     length 0.561859   
     axis -7.52654e-015 90 90   XYZ
    dof rx rz
    limits (-90.0 90.0)
           (-45.0 45.0)
  end
  begin
     id 22 
     name lfingers
     direction 1 -4.48927e-011 2.35758e-026   
     length 0.452985   
     axis -1.50534e-014 90 90   XYZ
    dof rx
    limits (0.0 90.0)
  end
  begin
     id 23
     name lthumb
     direction 0.707107 -6.34898e-011 0.707107   
     length 0.650399   
     axis -90 45 5.69224e-014   XYZ
    dof rx rz
    limits (-45.0 45.0)
           (-45.0 45.0)
  end
  begin
     id 24 
     name rclavicle
     direction -0.988403 0.151789 0.00439714   
     length 3.6942  
     axis 0 0 0   XYZ 
    dof ry rz
    limits (-10.0 20.0)
           (-20.0 0.0)
  end
  begin
     id 25 
     name rhumerus
     direction -1 -4.48978e-011 1.62495e-027  
     length 5.22819   
     axis 180 30 90   XYZ
    dof rx ry rz
    limits (-90.0 60.0)
           (-90.0 90.0)
           (-90.0 90.0)
  end
  begin
     id 26 
     name rradius
     direction -1 -4.48961e-011 3.47796e-027   
     length 3.40764   
     axis 180 30 90   XYZ
    dof rx
    limits (-10.0 170.0)
  end
  begin
     id 27 
     name rwrist
     direction -1 -4.48949e-011 5.89602e-027   
     length 1.70382   
     axis -3.27506e-015 -90 -90   XYZ
    dof ry
    limits (-180.0 0.0)
  end
  begin
     id 28
     name rhand
     direction -1 -4.48977e-011 1.17973e-026   
     length 0.583255   
     axis -7.52654e-015 -90 -90   XYZ
    dof rx rz
    limits (-90.0 90.0)
           (-45.0 45.0)
  end
  begin
     id 29
     name rfingers
     direction -1 -4.49099e-011 2.36408e-026   
     length 0.470235   
     axis -1.50534e-014 -90 -90   XYZ
    dof rx
    limits (0.0 90.0)
  end
  begin
     id 30
     name rthumb
     direction -0.707107 -6.35011e-011 0.707107   
     length 0.675167   
     axis -90 -45 -5.69224e-014   XYZ
    dof rx rz
    limits (-45.0 45.0)
           (-45.0 45.0)
  end
:hierarchy
  begin
    root lhipjoint rhipjoint lowerback
    lhipjoint lfemur
    lfemur ltibia
    ltibia lfoot
    lfoot ltoes
    rhipjoint rfemur
    rfemur rtibia
    rtibia rfoot
    rfoot rtoes
    lowerback upperback
    upperback thorax
    thorax lowerneck lclavicle rclavicle
    lowerneck upperneck
    upperneck head
    lclavicle lhumerus
    lhumerus lradius
    lradius lwrist
    lwrist lhand lthumb
    lhand lfingers
    rclavicle rhumerus
    rhumerus rradius
    rradius rwrist
    rwrist rhand rthumb
    rhand rfingers
  end

#!OML:ASF G:\JayActor3\Patient Classification 1\Patient 1\Session 2\male.ASF
:FULLY-SPECIFIED
:DEGREES
1434
root 3.89894 16.9527 -5.19714 228.562 78.7936 -121.601
lowerback 8.00053 -0.401215 8.89975
upperback -0.258018 0.478866 2.05619
thorax -4.72943 0.0768437 -2.90349
lowerneck -4.76692 -3.73475 -4.05324
upperneck 2.57195 -5.03906 9.52584
head 2.07403 -2.31039 3.68622
rclavicle 5.889e-015 1.64991e-014
rhumerus -52.7961 21.1961 -95.1256
rradius 66.9895
rwrist 1.48324
rhand -28.7584 17.1845
rfingers 7.12502
rthumb -2.11835 -12.7847
lclavicle 5.889e-015 1.64991e-014
lhumerus -30.1477 -5.92748 86.9528
lradius 117.63
lwrist 81.0039
lhand -22.868 10.7642
lfingers 7.12502
lthumb 3.57056 40.7141
rfemur 24.3898 -2.5558 37.5253
rtibia -8.26944e-014
rfoot -12.038 -10.2774
rtoes 18.3012
lfemur -60.8421 4.60164 -13.418
ltibia 99.66
lfoot -12.9379 -1.93396
ltoes -24.2943
1435
root 4.05444 16.9159 -5.20811 230.05 78.991 -120.276
lowerback 7.85618 -0.276742 8.95726
upperback -0.291238 0.633379 2.04219
thorax -4.66441 0.152629 -2.96743
lowerneck -4.60355 -3.73019 -4.05001
upperneck 2.23709 -5.01258 9.60131
head 1.93411 -2.30542 3.71405
rclavicle 7.35503e-015 -2.18663e-015
rhumerus -52.7321 21.2625 -95.1986
rradius 66.9319
rwrist 1.55291
rhand -28.7055 17.1818
rfingers 7.12502
rthumb -2.06731 -12.7879
lclavicle 7.35503e-015 -2.18663e-015
lhumerus -30.1122 -5.87018 86.9523
lradius 117.618
lwrist 81.0467
lhand -22.9366 10.7904
lfingers 7.12502
lthumb 3.50434 40.7413
rfemur 24.8592 -2.45253 37.4483
rtibia -9.54166e-015
rfoot -12.0463 -9.87012
rtoes 17.6079
lfemur -58.2814 4.44116 -13.64
ltibia 94.314
lfoot -13.3723 -1.79381
ltoes -24.6502
1436
root 4.21217 16.8805 -5.22132 231.754 79.2108 -118.74
lowerback 7.69079 -0.139054 9.03497
upperback -0.322672 0.804304 2.02344
thorax -4.58297 0.236746 -3.0485
lowerneck -4.4527 -3.72606 -4.05475
upperneck 1.91044 -4.98543 9.63211
head 1.79814 -2.30118 3.72783
rclavicle -4.84538e-015 -2.04748e-014
rhumerus -52.6767 21.3174 -95.2651
rradius 66.9189
rwrist 1.58247
rhand -28.6584 17.1775
rfingers 7.12502
rthumb -2.02182 -12.7927
lclavicle -4.84538e-015 -2.04748e-014
lhumerus -30.0984 -5.77493 86.9416
lradius 117.593
lwrist 81.1838
lhand -23.0768 10.8158
lfingers 7.12502
lthumb 3.36895 40.7689
rfemur 25.3351 -2.29826 37.3358
rtibia 9.54166e-015
rfoot -11.9782 -9.38411
rtoes 16.8497
lfemur -55.6024 4.40186 -13.8305
ltibia 88.8245
lfoot -13.792 -1.7633
ltoes -24.9976
1437
root 4.37209 16.8462 -5.23675 233.626 79.4248 -117.046
lowerback 7.49937 0.00624526 9.13937
upperback -0.355673 0.984708 2.0052
thorax -4.48643 0.325682 -3.14365
lowerneck -4.29727 -3.72337 -4.06482
upperneck 1.57232 -4.9585 9.62551
head 1.65681 -2.29845 3.7298
rclavicle -9.44227e-016 9.93923e-016
rhumerus -52.6389 21.3513 -95.3175
rradius 66.9553
rwrist 1.58531
rhand -28.6205 17.1734
rfingers 7.12502
rthumb -1.98523 -12.7971
lclavicle -9.44227e-016 9.93923e-016
lhumerus -30.1064 -5.66261 86.9317
lradius 117.565
lwrist 81.3806
lhand -23.2522 10.848
lfingers 7.12502
lthumb 3.19954 40.8037
rfemur 25.808 -2.11987 37.2118
rtibia -6.36111e-014
rfoot -11.8533 -8.85768
rtoes 16.1159
lfemur -52.8364 4.43761 -13.9764
ltibia 83.2417
lfoot -14.1864 -1.79808
ltoes -25.3321
1438
root 4.53445 16.8132 -5.25421 235.643 79.6067 -115.225
lowerback 7.27074 0.151423 9.27763
upperback -0.390662 1.16398 1.99465
thorax -4.37 0.414492 -3.24771
lowerneck -4.13073 -3.71918 -4.08428
upperneck 1.20758 -4.92724 9.59992
head 1.50458 -2.29477 3.72758
rclavicle -3.45388e-015 -1.80894e-014
rhumerus -52.6159 21.3722 -95.3518
rradius 67.032
rwrist 1.57453
rhand -28.5946 17.1666
rfingers 7.12502
rthumb -1.96016 -12.8042
lclavicle -3.45388e-015 -1.80894e-014
lhumerus -30.1333 -5.53849 86.9268
lradius 117.543
lwrist 81.6032
lhand -23.4109 10.8811
lfingers 7.12502
lthumb 3.04628 40.8391
rfemur 26.2667 -1.93697 37.1042
rtibia 6.36111e-015
rfoot -11.6781 -8.33458
rtoes 15.4198
lfemur -50.0125 4.50246 -14.0558
ltibia 77.6069
lfoot -14.5419 -1.87002
ltoes -25.5622
1439
root 4.69889 16.7702 -5.27385 237.732 79.7326 -113.353
lowerback 6.99601 0.289263 9.45507
upperback -0.430147 1.33177 1.99304
thorax -4.23234 0.498065 -3.36086
lowerneck -3.94139 -3.71373 -4.10314
upperneck 0.807247 -4.89224 9.57062
head 1.33682 -2.29024 3.7249
rclavicle -8.92046e-015 2.38542e-015
rhumerus -52.6076 21.3808 -95.3726
rradius 67.1296
rwrist 1.5589
rhand -28.5819 17.1578
rfingers 7.12502
rthumb -1.94787 -12.813
lclavicle -8.92046e-015 2.38542e-015
lhumerus -30.1841 -5.42067 86.926
lradius 117.538
lwrist 81.8
lhand -23.5353 10.9074
lfingers 7.12502
lthumb 2.92614 40.8671
rfemur 26.7161 -1.77278 37.0371
rtibia 1.59028e-014
rfoot -11.4631 -7.84344
rtoes 14.7591
lfemur -47.2352 4.55156 -14.0618
ltibia 72.0412
lfoot -14.8494 -1.91603
ltoes -25.7411
1440
root 4.86731 16.7371 -5.29438 239.873 79.7913 -111.458
lowerback 6.66056 0.41678 9.67416
upperback -0.475781 1.48203 2.00106
thorax -4.06756 0.573706 -3.48267
lowerneck -3.72786 -3.70721 -4.11524
upperneck 0.37521 -4.85435 9.55116
head 1.15506 -2.28482 3.7255
rclavicle 2.82274e-014 2.28602e-014
rhumerus -52.6114 21.3797 -95.3837
rradius 67.2326
rwrist 1.54686
rhand -28.5748 17.1492
rfingers 7.12502
rthumb -1.94109 -12.8217
lclavicle 2.82274e-014 2.28602e-014
lhumerus -30.2595 -5.31402 86.9266
lradius 117.553
lwrist 81.9451
lhand -23.6021 10.919
lfingers 7.12502
lthumb 2.86167 40.8795
rfemur 27.1313 -1.62961 37.0179
rtibia -5.08889e-014
rfoot -11.1864 -7.40727
rtoes 14.0983
lfemur -44.3976 4.56654 -13.9726
ltibia 66.5113
lfoot -15.149 -1.88316
ltoes -25.978
1441
root 5.04034 16.7051 -5.31601 242.064 79.7968 -109.552
lowerback 6.24111 0.538057 9.91554
upperback -0.531189 1.61469 2.01498
thorax -3.86658 0.642086 -3.60568
lowerneck -3.49699 -3.69943 -4.11595
upperneck -0.0653984 -4.81488 9.5506
head 0.968322 -2.27842 3.73163
rclavicle 3.00165e-014 1.70955e-014
rhumerus -52.6262 21.3743 -95.3916
rradius 67.3207
rwrist 1.54578
rhand -28.5566 17.1321
rfingers 7.12502
rthumb -1.92349 -12.839
lclavicle 3.00165e-014 1.70955e-014
lhumerus -30.3674 -5.22433 86.9236
lradius 117.593
lwrist 82.0156
lhand -23.6103 10.9269
lfingers 7.12502
lthumb 2.85369 40.8875
rfemur 24.242 -1.47016 37.0879
rtibia 6.14205
rfoot -13.6323 -6.26835
rtoes 13.4475
lfemur -41.5974 4.52675 -13.81
ltibia 61.1495
lfoot -15.449 -1.69466
ltoes -26.3193
1442
root 5.21938 16.6752 -5.3385 244.33 79.7736 -107.6
lowerback 5.73762 0.658707 10.1541
upperback -0.59493 1.73396 2.0308
thorax -3.62781 0.705914 -3.7203
lowerneck -3.26675 -3.68993 -4.10361
upperneck -0.473283 -4.77567 9.57066
head 0.793179 -2.27099 3.74307
rclavicle -2.36802e-014 -2.22639e-014
rhumerus -52.6595 21.3709 -95.4032
rradius 67.3846
rwrist 1.55371
rhand -28.5407 17.1202
rfingers 7.12502
rthumb -1.90815 -12.851
lclavicle -2.36802e-014 -2.22639e-014
lhumerus -30.5125 -5.15239 86.9155
lradius 117.656
lwrist 82.0156
lhand -23.5752 10.9245
lfingers 7.12502
lthumb 2.88764 40.8847
rfemur 22.9362 -1.31096 37.1248
rtibia 9.28787
rfoot -14.6098 -5.50066
rtoes 12.7677
lfemur -38.824 4.42271 -13.596
ltibia 56.0091
lfoot -15.7509 -1.2901
ltoes -26.8171
1443
root 5.40502 16.6478 -5.3615 246.694 79.7426 -105.567
lowerback 5.16181 0.783734 10.3654
upperback -0.667434 1.84559 2.04558
thorax -3.3582 0.768134 -3.8167
lowerneck -3.0573 -3.67891 -4.0782
upperneck -0.805437 -4.7396 9.61017
head 0.64698 -2.26299 3.75857
rclavicle -3.38679e-014 -3.89618e-014
rhumerus -52.719 21.3669 -95.4207
rradius 67.4256
rwrist 1.56436
rhand -28.5346 17.1192
rfingers 7.12502
rthumb -1.90227 -12.8521
lclavicle -3.38679e-014 -3.89618e-014
lhumerus -30.7005 -5.10021 86.8991
lradius 117.739
lwrist 81.9702
lhand -23.5139 10.9172
lfingers 7.12502
lthumb 2.94685 40.8766
rfemur 21.9183 -1.13166 37.147
rtibia 11.8928
rfoot -15.2155 -4.82889
rtoes 12.059
lfemur -36.0874 4.24199 -13.3502
ltibia 51.182
lfoot -16.069 -0.665521
ltoes -27.3972
1444
root 5.59719 16.6234 -5.38441 249.164 79.7235 -103.424
lowerback 4.54038 0.914423 10.524
upperback -0.747886 1.95322 2.05796
thorax -3.07232 0.830215 -3.88299
lowerneck -2.8893 -3.66547 -4.04404
upperneck -1.02524 -4.70779 9.66157
head 0.544859 -2.25414 3.77534
rclavicle 3.55328e-015 2.42517e-014
rhumerus -52.8132 21.3624 -95.4437
rradius 67.4517
rwrist 1.5696
rhand -28.5365 17.1253
rfingers 7.12502
rthumb -1.90411 -12.846
lclavicle 3.55328e-015 2.42517e-014
lhumerus -30.9246 -5.05956 86.8767
lradius 117.83
lwrist 81.9058
lhand -23.4532 10.8981
lfingers 7.12502
lthumb 3.00544 40.8567
rfemur 20.9879 -1.12645 37.0672
rtibia 14.3672
rfoot -15.5384 -4.02735
rtoes 11.2833
lfemur -33.3875 3.97284 -13.0941
ltibia 46.7367
lfoot -16.408 0.130904
ltoes -27.8538
1445
root 5.79418 16.6008 -5.40639 251.621 79.7235 -101.264
lowerback 3.92564 1.04293 10.6063
upperback -0.835669 2.05304 2.06726
thorax -2.80062 0.888972 -3.9082
lowerneck -2.77182 -3.65047 -3.99942
upperneck -1.11667 -4.68276 9.71645
head 0.493254 -2.24533 3.78944
rclavicle -3.7123e-014 -5.86415e-014
rhumerus -52.9459 21.3504 -95.4684
rradius 67.4717
rwrist 1.56942
rhand -28.5549 17.1362
rfingers 7.12502
rthumb -1.92183 -12.8349
lclavicle -3.7123e-014 -5.86415e-014
lhumerus -31.1765 -5.03004 86.854
lradius 117.923
lwrist 81.8434
lhand -23.4001 10.879
lfingers 7.12502
lthumb 3.05671 40.8368
rfemur 20.0717 -1.08519 36.9716
rtibia 16.8767
rfoot -15.6947 -3.32591
rtoes 10.4889
lfemur -30.7358 3.60899 -12.8548
ltibia 42.7474
lfoot -16.7488 1.00952
ltoes -28.1351
1446
root 5.99353 16.5803 -5.42622 253.904 79.7405 -99.2259
lowerback 3.36678 1.15565 10.5946
upperback -0.930923 2.13461 2.07742
thorax -2.57367 0.93779 -3.87981
lowerneck -2.69876 -3.63256 -3.94909
upperneck -1.08949 -4.66227 9.77068
head 0.487732 -2.23574 3.80038
rclavicle -1.90833e-014 -2.38542e-014
rhumerus -53.1101 21.3266 -95.4859
rradius 67.4889
rwrist 1.56547
rhand -28.5819 17.1518
rfingers 7.12502
rthumb -1.94796 -12.8191
lclavicle -1.90833e-014 -2.38542e-014
lhumerus -31.4458 -4.99934 86.8325
lradius 118.01
lwrist 81.8074
lhand -23.3471 10.858
lfingers 7.12502
lthumb 3.10794 40.8151
rfemur 19.1135 -1.06441 36.8483
rtibia 19.5281
rfoot -15.6606 -2.71578
rtoes 9.7681
lfemur -28.1801 3.18496 -12.6653
ltibia 39.2934
lfoot -16.9956 1.90829
ltoes -28.178
1447
root 6.19237 16.5656 -5.44291 255.76 79.7756 -97.5494
lowerback 2.91674 1.23098 10.4728
upperback -1.03719 2.1776 2.08954
thorax -2.42885 0.964685 -3.78955
lowerneck -2.63885 -3.60785 -3.89204
upperneck -0.989399 -4.63837 9.8195
head 0.507306 -2.22292 3.80741
rclavicle -1.00138e-014 -2.48481e-014
rhumerus -53.291 21.2844 -95.4925
rradius 67.4927
rwrist 1.57402
rhand -28.6148 17.1684
rfingers 7.12502
rthumb -1.97972 -12.8021
lclavicle -1.00138e-014 -2.48481e-014
lhumerus -31.7218 -4.95047 86.816
lradius 118.086
lwrist 81.7838
lhand -23.3097 10.8354
lfingers 7.12502
lthumb 3.14397 40.792
rfemur 18.0443 -1.12677 36.6816
rtibia 22.4286
rfoot -15.3929 -2.19616
rtoes 9.2683
lfemur -25.818 2.73318 -12.5509
ltibia 36.443
lfoot -17.0805 2.70201
ltoes -27.7504
